<svg xmlns="http://www.w3.org/2000/svg" width="420" height="96" viewBox="0 0 420 96" role="img" aria-label="NYC Medical Advocates">
  <defs>
    <linearGradient id="lg" x1="0" y1="0" x2="1" y2="1">
      <stop offset="0" stop-color="#60a5fa"/>
      <stop offset="1" stop-color="#a78bfa"/>
    </linearGradient>
  </defs>

  <!-- mark -->
  <g transform="translate(10,10)">
    <rect x="0" y="0" width="76" height="76" rx="18" fill="#0b1020"/>
    <rect x="6" y="6" width="64" height="64" rx="14" fill="url(#lg)" opacity="0.18"/>
    <path d="M38 16c3.9 0 7 3.1 7 7v10h10c3.9 0 7 3.1 7 7s-3.1 7-7 7H45v10c0 3.9-3.1 7-7 7s-7-3.1-7-7V47H21c-3.9 0-7-3.1-7-7s3.1-7 7-7h10V23c0-3.9 3.1-7 7-7z" fill="#eaf2ff"/>
  </g>

  <!-- wordmark -->
  <g transform="translate(104,30)" fill="#e5e7eb">
    <text x="0" y="0" font-family="ui-sans-serif, system-ui, -apple-system, Segoe UI, Roboto, Arial" font-size="28" font-weight="900">NYC Medical Advocates</text>
    <text x="0" y="28" font-family="ui-sans-serif, system-ui, -apple-system, Segoe UI, Roboto, Arial" font-size="14" font-weight="700" fill="#a1a1aa">
      Free medical advocacy and navigation in New York City
    </text>
  </g>
</svg>
